<svg xmlns="http://www.w3.org/2000/svg" xmlns:xlink="http://www.w3.org/1999/xlink" viewBox="0 0 915.69 679.28">
  <defs>
    <linearGradient id="a" x1="549.23" y1="734.77" x2="549.23" y2="126.57" gradientTransform="matrix(.97 .31 -.3 .99 144.2 -171.29)" gradientUnits="userSpaceOnUse">
      <stop offset="0" stop-color="gray" stop-opacity=".25"/>
      <stop offset=".54" stop-color="gray" stop-opacity=".12"/>
      <stop offset="1" stop-color="gray" stop-opacity=".1"/>
    </linearGradient>
    <linearGradient id="c" x1="549.32" y1="679.28" x2="549.32" y2="233.84" xlink:href="#a"/>
    <linearGradient id="b" x1="888.78" y1="569.3" x2="888.78" y2="526.2" gradientUnits="userSpaceOnUse">
      <stop offset="0" stop-opacity=".12"/>
      <stop offset=".55" stop-opacity=".09"/>
      <stop offset="1" stop-opacity=".02"/>
    </linearGradient>
    <linearGradient id="d" x1="888.78" y1="646.14" x2="888.78" y2="603.03" xlink:href="#b"/>
    <linearGradient id="e" x1="741.39" y1="487.05" x2="741.39" y2="464.56" xlink:href="#b"/>
    <linearGradient id="f" x1="949.9" y1="646.14" x2="949.9" y2="603.03" xlink:href="#b"/>
    <linearGradient id="g" x1="949.9" y1="569.3" x2="949.9" y2="526.2" xlink:href="#b"/>
    <linearGradient id="h" x1="812.99" y1="487.05" x2="812.99" y2="464.56" xlink:href="#b"/>
  </defs>
  <rect x="184.86" y="201.53" width="728.62" height="445" rx="27.5" ry="27.5" transform="rotate(-17.26 114.55 837.21)" fill="url(#a)"/>
  <rect x="193.72" y="205.56" width="713.76" height="429.25" rx="27.5" ry="27.5" transform="rotate(-17.26 115.98 833.35)" fill="#fff"/>
  <path fill="#3f51b5" d="M20.72 264.79L702.34 53l18.27 58.79L38.99 323.57z"/>
  <path fill="#bdbdbd" d="M161.63 527.65l173.19-53.81 7.9 25.42-173.19 53.8z"/>
  <path fill="#e0e0e0" d="M148.3 484.74l300.29-93.3 7.9 25.42-300.3 93.3z"/>
  <rect x="182.96" y="233.84" width="732.73" height="445.44" rx="27.5" ry="27.5" fill="url(#c)"/>
  <rect x="191.28" y="238.38" width="713.76" height="429.25" rx="27.5" ry="27.5" fill="#fff"/>
  <path fill="#e0e0e0" d="M247.01 305.76h20.8v59.06h-20.8zM273.63 305.76h20.8v59.06h-20.8zM300.25 305.76h20.8v59.06h-20.8zM346.84 305.76h20.8v59.06h-20.8zM373.46 305.76h20.8v59.06h-20.8zM400.08 305.76h20.8v59.06h-20.8zM446.66 305.76h20.8v59.06h-20.8zM473.29 305.76h20.8v59.06h-20.8zM499.91 305.76h20.8v59.06h-20.8zM546.49 305.76h20.8v59.06h-20.8zM573.11 305.76h20.8v59.06h-20.8zM599.73 305.76h20.8v59.06h-20.8z"/>
  <path fill="#bdbdbd" d="M247.01 603.57h181.35v26.62H247.01z"/>
  <path fill="#e0e0e0" d="M247.01 558.65h314.45v26.62H247.01z"/>
  <path d="M906.25 568.21a4.38 4.38 0 0 1 4.22-4.53h6.26V526.2h-55.89v43.1h45.4z" transform="translate(-142.16 -110.36)" fill="url(#b)"/>
  <path d="M910.47 608.66a4.38 4.38 0 0 1-4.22-4.53V603h-45.4v43.1h55.88v-37.44z" transform="translate(-142.16 -110.36)" fill="url(#d)"/>
  <path fill="url(#e)" d="M718.69 464.56h45.4v22.49h-45.4z"/>
  <path d="M932.44 604.13a4.38 4.38 0 0 1-4.22 4.53H922v37.48h55.88V603h-45.4z" transform="translate(-142.16 -110.36)" fill="url(#f)"/>
  <path d="M922 526.2v37.48h6.26a4.38 4.38 0 0 1 4.22 4.53v1.09h45.4v-43.1z" transform="translate(-142.16 -110.36)" fill="url(#g)"/>
  <path fill="url(#h)" d="M790.28 464.56h45.4v22.49h-45.4z"/>
  <path d="M764.28 458.27a4 4 0 0 1 4-4h6v-33.29h-53.3v38.26h43.31zM768.3 494.18a4 4 0 0 1-4-4v-1h-43.33v38.27h53.3v-33.27zM720.97 464.23h43.31v19.97h-43.31zM789.26 490.16a4 4 0 0 1-4 4h-6v33.28h53.3v-38.25h-43.3zM779.27 420.98v33.28h6a4 4 0 0 1 4 4v1h43.31v-38.28zM789.27 464.23h43.31v19.97h-43.31z" fill="#3f51b5"/>
</svg>
