<svg xmlns="http://www.w3.org/2000/svg" viewBox="0 0 400 300"><path d="M-.3 0h400v300H-.3V0z" fill="#f6f7f9"/><path d="M172.4 172.9v16.2h-2.1v-16.2h2.1zM176.2 180.6c0-1.2 0-2.2-.1-3.1h1.8l.1 1.9h.1c.6-1.1 1.7-2.1 3.6-2.1 1.6 0 2.8 1 3.3 2.3.4-.6.8-1.2 1.3-1.5.7-.5 1.5-.8 2.6-.8 1.5 0 3.8 1 3.8 5v6.8h-2.1v-6.6c0-2.2-.8-3.6-2.5-3.6-1.2 0-2.1.9-2.5 1.9-.1.3-.2.7-.2 1.1v7.2h-2.1v-7c0-1.8-.8-3.2-2.4-3.2-1.3 0-2.3 1.1-2.6 2.1-.1.3-.2.7-.2 1v7H176v-8.4zM202.7 189.1l-.2-1.5h-.1c-.6.9-1.9 1.7-3.6 1.7-2.4 0-3.6-1.7-3.6-3.3 0-2.8 2.5-4.3 7-4.3v-.2c0-1-.3-2.7-2.6-2.7-1.1 0-2.2.3-3 .9l-.5-1.4c1-.6 2.4-1 3.8-1 3.6 0 4.4 2.4 4.4 4.8v4.3c0 1 0 2 .2 2.8h-1.8zm-.3-6c-2.3 0-4.9.4-4.9 2.6 0 1.4.9 2 2 2 1.5 0 2.5-1 2.8-1.9.1-.2.1-.5.1-.7v-2zM217.8 177.4c0 .8-.1 1.8-.1 3.2v6.7c0 2.7-.5 4.3-1.7 5.3-1.1 1.1-2.8 1.4-4.2 1.4-1.4 0-2.9-.3-3.9-1l.5-1.6c.8.5 2 .9 3.4.9 2.2 0 3.7-1.1 3.7-4.1v-1.3c-.6 1.1-1.9 1.9-3.7 1.9-2.9 0-4.9-2.4-4.9-5.7 0-3.9 2.6-6.2 5.2-6.2 2 0 3.1 1.1 3.6 2l.1-1.8h2zm-2.2 4.6c0-.4 0-.7-.1-1-.4-1.2-1.4-2.2-3-2.2-2 0-3.5 1.7-3.5 4.4 0 2.3 1.2 4.2 3.4 4.2 1.3 0 2.5-.8 2.9-2.2.1-.4.2-.8.2-1.1V182zM222.4 183.6c0 2.9 1.9 4 4 4 1.5 0 2.4-.3 3.2-.6l.4 1.5c-.7.3-2 .7-3.9.7-3.6 0-5.7-2.4-5.7-5.9s2.1-6.3 5.4-6.3c3.8 0 4.8 3.3 4.8 5.5 0 .4 0 .8-.1 1h-8.1zm6.2-1.5c0-1.3-.6-3.4-2.9-3.4-2.1 0-3.1 2-3.2 3.4h6.1zM153.9 214.7c0 1.2 0 2.3.1 3.2h-1.9l-.1-1.9c-.6.9-1.8 2.2-3.8 2.2-1.8 0-4-1-4-5.1v-6.8h2.1v6.4c0 2.2.7 3.7 2.6 3.7 1.4 0 2.4-1 2.8-1.9.1-.3.2-.7.2-1.1v-7.1h2.1v8.4zM157.4 209.4c0-1.2 0-2.2-.1-3.1h1.9l.1 1.9c.6-1.1 1.9-2.2 3.8-2.2 1.6 0 4.1 1 4.1 4.9v6.9h-2.1v-6.7c0-1.9-.7-3.4-2.7-3.4-1.4 0-2.5 1-2.8 2.2-.1.3-.1.6-.1 1v7h-2.1v-8.5zM177.2 217.9l-.2-1.5h-.1c-.6.9-1.9 1.7-3.6 1.7-2.4 0-3.6-1.7-3.6-3.3 0-2.8 2.5-4.3 7-4.3v-.2c0-1-.3-2.7-2.6-2.7-1.1 0-2.2.3-3 .9l-.5-1.4c1-.6 2.4-1 3.8-1 3.6 0 4.4 2.4 4.4 4.8v4.3c0 1 0 2 .2 2.8h-1.8zm-.3-6c-2.3 0-4.9.4-4.9 2.6 0 1.4.9 2 2 2 1.5 0 2.5-1 2.8-1.9.1-.2.1-.5.1-.7v-2zM182.9 206.2l2.3 6.5c.4 1.1.7 2 .9 3h.1c.3-1 .6-1.9 1-3l2.3-6.5h2.2l-4.6 11.6h-2l-4.4-11.6h2.2zM200 217.9l-.2-1.5h-.1c-.6.9-1.9 1.7-3.6 1.7-2.4 0-3.6-1.7-3.6-3.3 0-2.8 2.5-4.3 7-4.3v-.2c0-1-.3-2.7-2.6-2.7-1.1 0-2.2.3-3 .9l-.5-1.4c1-.6 2.4-1 3.8-1 3.6 0 4.4 2.4 4.4 4.8v4.3c0 1 0 2 .2 2.8H200zm-.3-6c-2.3 0-4.9.4-4.9 2.6 0 1.4.9 2 2 2 1.5 0 2.5-1 2.8-1.9.1-.2.1-.5.1-.7v-2zM207.5 203c0 .7-.5 1.3-1.3 1.3-.7 0-1.3-.6-1.3-1.3 0-.7.6-1.3 1.3-1.3.8 0 1.3.5 1.3 1.3zm-2.4 14.9v-11.6h2.1v11.6h-2.1zM210.7 200.8h2.1v17h-2.1v-17zM222.8 217.9l-.2-1.5h-.1c-.6.9-1.9 1.7-3.6 1.7-2.4 0-3.6-1.7-3.6-3.3 0-2.8 2.5-4.3 7-4.3v-.2c0-1-.3-2.7-2.6-2.7-1.1 0-2.2.3-3 .9l-.5-1.4c1-.6 2.4-1 3.8-1 3.6 0 4.4 2.4 4.4 4.8v4.3c0 1 0 2 .2 2.8h-1.8zm-.3-6c-2.3 0-4.9.4-4.9 2.6 0 1.4.9 2 2 2 1.5 0 2.5-1 2.8-1.9.1-.2.1-.5.1-.7v-2zM227.9 217.9c0-.8.1-2 .1-3v-14h2.1v7.3c.7-1.3 2.1-2.1 4-2.1 2.9 0 4.9 2.4 4.9 5.9 0 4.2-2.6 6.2-5.2 6.2-1.7 0-3-.6-3.9-2.2h-.1l-.1 1.9h-1.8zm2.2-4.7c0 .3 0 .5.1.8.4 1.5 1.6 2.5 3.2 2.5 2.2 0 3.5-1.8 3.5-4.5 0-2.3-1.2-4.3-3.5-4.3-1.4 0-2.8 1-3.2 2.6 0 .2-.1.5-.1.9v2zM241.6 200.8h2.1v17h-2.1v-17zM248.5 212.4c0 2.9 1.9 4 4 4 1.5 0 2.4-.3 3.2-.6l.4 1.5c-.7.3-2 .7-3.9.7-3.6 0-5.7-2.4-5.7-5.9 0-3.5 2.1-6.3 5.4-6.3 3.8 0 4.8 3.3 4.8 5.5 0 .4 0 .8-.1 1h-8.1zm6.2-1.5c0-1.3-.6-3.4-2.9-3.4-2.1 0-3.1 2-3.2 3.4h6.1zM204 105.9l-7.5 10 5.7 7.6-3.2 2.4c-3.4-4.5-9-12-9-12l-12 16h44l-18-24z"/><path d="M230 108.6v35.2c0 2.2-1.8 4-4 4h-52c-2.2 0-4-1.8-4-4v-52c0-2.2 1.8-4 4-4h42.4" fill="none" stroke="#000" stroke-width="3" stroke-miterlimit="10"/><g><path d="M223.2 98.9l-.1-.9c-.2-1.9.4-3.9 2.2-6 1.6-1.8 2.5-3.2 2.5-4.7 0-1.8-1.1-2.9-3.4-3-1.3 0-2.7.4-3.6 1.1l-.9-2.2c1.2-.8 3.2-1.4 5.1-1.4 4.1 0 5.9 2.4 5.9 5.1 0 2.3-1.3 4-3.1 6-1.6 1.8-2.1 3.3-2 5.1v.9h-2.6zm-.8 4.8c0-1.3.9-2.2 2.1-2.2 1.2 0 2.1.9 2.1 2.2 0 1.2-.8 2.1-2.1 2.1-1.2.1-2.1-.9-2.1-2.1z"/></g></svg>

